<svg xmlns="http://www.w3.org/2000/svg" width="108" height="108"><circle fill="#3BC492" cx="54" cy="53.996" r="54"/><path opacity=".3" fill="#00131A" enable-background="new" d="M80.252 28h-52.5c-2.08 0-3.75 1.67-3.75 3.75v41.25c0 2.08 1.67 3.75 3.75 3.75h18.75v3.604l-10.547 5.273c-.557.293-.762.85-.703 1.406.146.557.703.967 1.26.967h34.98c.703 0 1.26-.557 1.26-1.26 0-.469-.264-.967-.762-1.113l-10.488-5.273v-3.604h18.75c2.08 0 3.75-1.67 3.75-3.75v-41.25c0-2.08-1.67-3.75-3.75-3.75z"/><path fill="#fff" d="M65.561 56.703c5.297-5.297 5.625-10.781 2.25-14.156-3.403-3.406-8.892-3.406-12.25 0-.642.641-1.157 1.344-1.562 2.078-.406-.734-.922-1.438-1.562-2.078-3.359-3.359-8.844-3.359-12.219 0-3.406 3.375-3.078 8.859 2.219 14.156l11.078 11.109c.107.11.295.188.482.188s.328-.078.484-.188l11.08-11.109z"/></svg>