<svg xmlns="http://www.w3.org/2000/svg" width="108" height="108"><circle fill="#3BC492" cx="54" cy="53.996" r="54"/><path opacity=".3" fill="#00131A" enable-background="new" d="M90 52.25c0-16.172-16.066-29.25-36-29.25s-36 13.078-36 29.25c0 9.738 5.836 18.316 14.836 23.66-1.02 7.523-5.344 11.918-5.414 12.023-.422.387-.492 1.055-.352 1.653.246.598.844.914 1.441.914 8.648 0 15.646-5.66 19.406-9.422 1.899.246 4.009.422 6.083.422 19.934 0 36-13.078 36-29.25z"/><path fill="#fff" d="M65.859 54.863c.11-.593.141-1.234.141-1.859s-.031-1.266-.141-1.859l3.062-2.656c.22-.156.297-.453.188-.703-.625-1.922-1.703-3.75-3.031-5.266-.188-.219-.453-.297-.703-.188l-3.859 1.344c-.953-.781-2.031-1.406-3.188-1.859l-.766-4c-.047-.25-.27-.484-.531-.516-2-.406-4.062-.406-6.062 0-.266.031-.484.266-.531.516l-.766 4c-1.156.453-2.266 1.078-3.188 1.859l-3.859-1.344c-.25-.109-.516-.031-.703.188-1.328 1.516-2.406 3.344-3.031 5.266-.109.25-.031.547.188.703l3.062 2.656c-.11.593-.141 1.234-.141 1.859s.031 1.266.141 1.859l-3.062 2.656c-.219.152-.297.453-.188.703.625 1.922 1.703 3.75 3.031 5.266.188.219.453.297.703.188l3.859-1.344c.922.781 2.031 1.406 3.188 1.859l.766 4c.047.25.266.48.531.516 1 .188 2 .297 3.031.297s2.031-.109 3.031-.297c.266-.031.484-.266.531-.516l.766-4c1.156-.453 2.234-1.078 3.188-1.859l3.859 1.344c.25.109.516.031.703-.188 1.328-1.516 2.406-3.344 3.031-5.266.105-.25.031-.551-.188-.703l-3.062-2.656zm-11.859 4.141c-3.328 0-6-2.672-6-6 0-3.297 2.672-6 6-6 3.297 0 6 2.703 6 6 0 3.328-2.703 6-6 6z"/></svg>