<svg xmlns="http://www.w3.org/2000/svg" width="108" height="108"><circle fill="#3BC492" cx="54" cy="53.996" r="54"/><path opacity=".3" fill="#00131A" enable-background="new" d="M17.1 61.047l30.181-27.828.73 39.781h-30.911v-11.953z"/><path fill="#fff" d="M86.16 33h-38.32c-.469 0-.84.371-.84.84v38.32c0 .469.371.84.84.84h38.32c.469 0 .84-.371.84-.84v-38.32c0-.469-.371-.84-.84-.84zm-57.412 28h-11.496c-.141 0-.252.111-.252.252v11.496c0 .141.111.252.252.252h11.496c.141 0 .252-.111.252-.252v-11.496c0-.141-.111-.252-.252-.252z"/></svg>