<svg xmlns="http://www.w3.org/2000/svg" width="108" height="108"><circle fill="#3BC492" cx="54" cy="53.996" r="54"/><path fill="#00131A" d="M51.5 77h-7c-.312 0-.605-.146-.795-.393-.189-.248-.252-.57-.17-.871l12-44c.119-.434.514-.736.965-.736h7c.312 0 .605.146.795.393s.252.569.17.87l-12 44c-.119.435-.514.737-.965.737z" opacity=".3"/><path fill="#fff" d="M36.484 42.859l-4.672-4.672c-.25-.266-.703-.266-.953 0l-15.343 15.329c-.25.266-.25.703 0 .969l15.344 15.327c.14.11.281.188.468.188s.344-.078.484-.188l4.672-4.672c.25-.25.25-.703 0-.953l-10.218-10.187 10.219-10.188c.249-.25.249-.703-.001-.953zm56 10.657l-15.343-15.328c-.141-.11-.282-.188-.469-.188s-.344.078-.484.188l-4.672 4.672c-.25.25-.25.703 0 .953l10.187 10.187-10.187 10.188c-.25.25-.25.703 0 .953l4.672 4.672c.25.27.703.27.953 0l15.344-15.328c.249-.266.249-.704-.001-.969z"/></svg>